<svg xmlns="http://www.w3.org/2000/svg" xmlns:xlink="http://www.w3.org/1999/xlink" id="Objects" x="0px" y="0px" viewBox="0 0 799.9 799.9" style="enable-background:new 0 0 799.9 799.9;" xml:space="preserve"> <style type="text/css"> .st0{fill-rule:evenodd;clip-rule:evenodd;} .st1{fill-rule:evenodd;clip-rule:evenodd;fill:#212121;} .st2{fill-rule:evenodd;clip-rule:evenodd;fill:#FFFFFF;} .st3{fill:#212121;} .st4{fill-rule:evenodd;clip-rule:evenodd;fill:#93989C;} .st5{fill-rule:evenodd;clip-rule:evenodd;fill:#66696B;} .st6{fill:none;stroke:#1E1E1E;stroke-miterlimit:10;} .st7{fill-rule:evenodd;clip-rule:evenodd;fill:#D4DFE6;} </style> <path class="st0" d="M347.8,154.5c-1.7,8.7-2.5,11.8-4.2,17.7c-4.8,16.4-10.7,47.9-8,60.2c2.7,12.3,21.5,44.8,21.7,88.8 c0,14-1.6,33.1-3.8,54.5c-52.1,18.6-93.5,10.8-123.9,0.7c-2-22.5-3.2-42.7-2.5-57c2.2-43.4,19.8-81.3,22.5-93.6 c2.7-12.3-5.5-41.4-9.6-56.2c-1-3.6-1.8-9.7-2.7-16.7c9.3-10.6,18.8-13.9,28.2-11.3c11.1,3,15.9,9.9,25.7,10.9c9.8-1,16-8,27.1-10.9 C327.9,139,338.2,143,347.8,154.5z"></path> <path class="st1" d="M347.7,154.8c-7.5,30.5-35.3,32.8-49.7,13.7C310.2,193,341.6,190.8,347.7,154.8z"></path> <path class="st1" d="M238,157.5c2.9,29.7,35.6,30.1,50,10.9C275.7,193,239.9,191.8,238,157.5z"></path> <path class="st1" d="M354,371.1c-16.7,0.5-35.5-15.3-47.5-54.7c-0.2,13.4-6.4,42.7-14.8,59.2c-7.8-15.6-13.7-42.7-15.5-58.2 c-10.9,34.1-28.3,56.1-47.2,53.5c0.3,3.5,0.1,1.9,0.4,5.6c30.4,10.1,71.8,17.9,123.9-0.7C353.8,372.1,353.7,374.6,354,371.1z"></path> <path class="st0" d="M353.4,371.5c-15.8,4.3-35-14.1-46.2-48.1c-1.9,12.3-6,43.9-15.7,58.5c-10.5-14.9-13.9-46.2-15.7-58.5 c-11.2,34-30.5,53-46.3,48.7c2.8,60.5-51.4,265.3-140.5,310.7c-33.3,24.7,42.9,32.9,103.3,18.9c-11.4,41.1,204.8,50.1,198.5-0.7 c60.3,14.1,136.6,5.9,103.3-18.9C404.7,636.8,350.6,432,353.4,371.5z"></path> <path class="st1" d="M244.9,369.6c9.3,45.6-17,247.6-52.7,332.1c-4.4,1-13.8,2.8-18.5,3.5C213,617.4,253.1,409.7,244.9,369.6z"></path> <path class="st1" d="M337.9,386.6c-9.3,43.4,17,235.7,52.7,316.1c4.4,0.9,13.8,2.7,18.5,3.4C369.8,622.4,329.8,424.7,337.9,386.6z"></path> <g> <rect x="478.5" y="361.1" class="st2" width="33" height="8"></rect> <rect x="672.2" y="361.1" class="st2" width="33" height="8"></rect> <path class="st0" d="M653.4,326.2c1.4,6.5-6.5,373.7-6.5,373.7h-45.7l-3.9-291.1h-8.6L584.7,700h-45.7c0,0-7.9-367.3-6.5-373.7 H653.4z"></path> <polygon class="st2" points="617.4,99.6 614.3,93.8 592.1,105 572.1,93.8 568.4,99.6 568.4,333.2 613.7,333.2 "></polygon> <path class="st1" d="M661.3,402.9c-12.6,3.7-31.3,8-48.7-4.6c-17.3-12.6-8.5-118.1-9-149.2c-0.6-31.1,5.9-109,13.9-144.2 c9.9,5.5,53.7,24,58.1,25.7c0.4,0.1,0.7,0.4,1.1,0.8c-10.7,28.7-18.4,74.6-19.2,84.2c-5,15.5-5.7,70.1-2.4,92.7 C658.4,331,661.3,402.9,661.3,402.9L661.3,402.9z M524.5,402.9c12.6,3.7,31.3,8,48.7-4.6c17.3-12.6,8.4-118.2,9-149.2 c0.6-31-5.1-107.7-13.9-144.2c-9.9,5.5-53.7,24-58,25.7c-0.4,0.1-0.7,0.4-1.1,0.8c10.7,28.7,18.4,74.6,19.2,84.2 c5,15.5,5.7,70.1,2.4,92.7C527.4,331,524.5,402.9,524.5,402.9z"></path> <path class="st0" d="M661.3,397.6c-12.6,3.7-31.3,8-48.7-4.6c-17.3-12.6-8.5-118.1-9-149.2c-0.6-31.1,5.9-109,13.9-144.2 c9.9,5.5,53.7,24,58.1,25.7c0.4,0.1,0.7,0.4,1.1,0.8c-10.7,28.7-18.4,74.6-19.2,84.2c-5,15.5-5.7,70.1-2.4,92.7 C658.4,325.6,661.3,397.6,661.3,397.6L661.3,397.6z M524.5,397.6c12.6,3.7,31.3,8,48.7-4.6c17.3-12.6,8.4-118.2,9-149.2 c0.6-31-5.1-107.7-13.9-144.2c-9.9,5.5-53.7,24-58,25.7c-0.4,0.1-0.7,0.4-1.1,0.8c10.7,28.7,18.4,74.6,19.2,84.2 c5,15.5,5.7,70.1,2.4,92.7C527.4,325.6,524.5,397.6,524.5,397.6z"></path> <path class="st1" d="M650.7,146.9c-4.8,14.4-34.7,78-45.6,104.8c0-3.1,0.1-5.8,0-8.2c-0.6-31,3.5-107.5,12.3-143.9l28.7,31.8 l-9.9,6.2L650.7,146.9z"></path> <path class="st3" d="M676.3,125.7c-3.6,7.4-8.7,21.7-12.9,39.2c-3.5,14.6-6.2,31.3-6.7,48c0.2-0.5,0.4-1.3,0.7-2.6 c0.1,0.2,0.4,1,0.7,1.4c0.6-16.2,3.3-32.4,6.7-46.6c4.1-17.1,9.1-31.2,12.6-38.5C677,126.4,676.7,126.1,676.3,125.7z"></path> <path class="st0" d="M676.6,126.1c11.3,11.1,27.3,117.7,27.6,130.8c0.6,24.6,4.5,87.4,4.5,107.7l-41.6-0.1 c3.1-33.3-2.5-139.1-9.7-154.2C654.1,197.7,660.3,150.7,676.6,126.1z"></path> <path class="st0" d="M509.2,126.1c16.3,26.2,22.6,72.7,19.2,84.2c-7.3,15.1-15.2,120.9-12.1,154.2l-41.6,0.1 c0-20.3,5.3-81.7,6.9-107.7C482.4,243.9,498,137.2,509.2,126.1z"></path> <g> <path class="st4" d="M479.2,351.9c1.3,0,2.4-1.1,2.4-2.4c0-1.3-1.1-2.4-2.4-2.4c-1.3,0-2.4,1.1-2.4,2.4 C476.8,350.9,477.9,351.9,479.2,351.9z"></path> <path class="st4" d="M479,359.5c1.3,0,2.4-1.1,2.4-2.4c0-1.3-1.1-2.4-2.4-2.4c-1.3,0-2.4,1.1-2.4,2.4 C476.6,358.5,477.7,359.5,479,359.5z"></path> </g> <path class="st1" d="M535.1,146.9c4.8,14.4,34.7,78,45.6,104.8c0-3.1-0.1-5.8,0-8.2c0.6-31-3.5-107.5-12.3-143.9l-28.6,31.9 l9.9,6.2L535.1,146.9z"></path> <rect x="634.7" y="188.8" class="st5" width="18" height="3.9"></rect> <rect x="529" y="303.4" class="st5" width="26.7" height="5.6"></rect> <rect x="630.1" y="303.4" class="st5" width="26.7" height="5.6"></rect> <polyline class="st6" points="617.4,105 603.5,121.5 592.9,112.2 582.3,121.5 568.4,102.9 "></polyline> <g> <path class="st5" d="M611.7,272.8c1.9,0,3.5-1.6,3.5-3.5c0-1.9-1.6-3.5-3.5-3.5c-1.9,0-3.5,1.6-3.5,3.5 C608.2,271.2,609.8,272.8,611.7,272.8z"></path> <path class="st5" d="M611.7,294.6c1.9,0,3.5-1.6,3.5-3.5c0-1.9-1.6-3.5-3.5-3.5c-1.9,0-3.5,1.6-3.5,3.5 C608.2,293,609.8,294.6,611.7,294.6z"></path> <path class="st5" d="M611.7,316.3c1.9,0,3.5-1.6,3.5-3.5c0-1.9-1.6-3.5-3.5-3.5c-1.9,0-3.5,1.6-3.5,3.5 C608.2,314.7,609.8,316.3,611.7,316.3z"></path> </g> <g> <path class="st0" d="M593.9,182.4c1,0,1.8-0.8,1.8-1.8c0-1-0.8-1.8-1.8-1.8c-1,0-1.8,0.8-1.8,1.8 C592.1,181.6,592.9,182.4,593.9,182.4z"></path> <path class="st0" d="M593.9,208.9c1,0,1.8-0.8,1.8-1.8c0-1-0.8-1.8-1.8-1.8c-1,0-1.8,0.8-1.8,1.8 C592.1,208.1,592.9,208.9,593.9,208.9z"></path> <path class="st0" d="M593.9,235.4c1,0,1.8-0.8,1.8-1.8c0-1-0.8-1.8-1.8-1.8c-1,0-1.8,0.8-1.8,1.8 C592.1,234.6,592.9,235.4,593.9,235.4z"></path> <path class="st0" d="M593.9,261.8c1,0,1.8-0.8,1.8-1.8c0-1-0.8-1.8-1.8-1.8c-1,0-1.8,0.8-1.8,1.8 C592.1,261,592.9,261.8,593.9,261.8z"></path> <path class="st0" d="M593.9,288.3c1,0,1.8-0.8,1.8-1.8s-0.8-1.8-1.8-1.8c-1,0-1.8,0.8-1.8,1.8S592.9,288.3,593.9,288.3z"></path> <path class="st0" d="M593.9,314.8c1,0,1.8-0.8,1.8-1.8c0-1-0.8-1.8-1.8-1.8c-1,0-1.8,0.8-1.8,1.8 C592.1,314,592.9,314.8,593.9,314.8z"></path> <path class="st0" d="M593.9,341.2c1,0,1.8-0.8,1.8-1.8s-0.8-1.8-1.8-1.8c-1,0-1.8,0.8-1.8,1.8S592.9,341.2,593.9,341.2z"></path> </g> <path class="st3" d="M509.6,125.8c3.6,7.4,8.7,21.7,12.9,39.2c3.5,14.6,6.2,31.3,6.7,48c-0.2-0.5-0.4-1.3-0.7-2.6 c-0.1,0.2-0.4,1-0.7,1.4c-0.6-16.2-3.3-32.4-6.7-46.6c-4.1-17.1-9.1-31.2-12.6-38.5C508.8,126.5,509.2,126.1,509.6,125.8z"></path> <rect x="583.3" y="349.7" class="st7" width="19.1" height="1.4"></rect> <polygon points="592.9,174.7 600.6,131.4 594.5,123 597.4,116.9 588.3,116.9 591.5,123 585.1,131.4 "></polygon> <path class="st1" d="M536.7,147.3c4.8,14.4,34.7,77.8,45.6,104.6c0-3.1-0.1-5.8,0-8.2c0.6-31-5.1-107.7-13.9-144.2l-26.9,31.9 l10.2,6.3L536.7,147.3z"></path> <path class="st1" d="M649.1,147.3c-4.8,14.4-34.7,77.8-45.6,104.6c0-3.1,0.1-5.8,0-8.2c-0.6-31,5.1-107.7,13.9-144.2l26.9,31.9 l-10.2,6.3L649.1,147.3z"></path> <polygon points="589,118.1 588.3,116.9 592.9,112.2 597.4,116.9 595.6,118.1 "></polygon> <path class="st2" d="M568.4,99.6"></path> </g> </svg>