<svg width="41" height="41" viewBox="0 0 41 41" fill="none" xmlns="http://www.w3.org/2000/svg">
<path d="M40.8918 20.7931C40.8918 9.74743 31.9375 0.793137 20.8918 0.793137C9.84614 0.793137 0.891846 9.74743 0.891846 20.7931C0.891846 30.7757 8.20556 39.0498 17.7668 40.5502V26.5744H12.6887V20.7931H17.7668V16.3869C17.7668 11.3744 20.7527 8.60564 25.3211 8.60564C27.5093 8.60564 29.7981 8.99626 29.7981 8.99626V13.9181H27.2761C24.7916 13.9181 24.0168 15.4598 24.0168 17.0415V20.7931H29.5637L28.677 26.5744H24.0168V40.5502C33.5781 39.0498 40.8918 30.7757 40.8918 20.7931Z" fill="#1877F2"/>
<path d="M28.677 26.5743L29.5637 20.7931H24.0168V17.0414C24.0168 15.4598 24.7917 13.9181 27.2761 13.9181H29.7981V8.99622C29.7981 8.99622 27.5093 8.60559 25.3211 8.60559C20.7527 8.60559 17.7668 11.3743 17.7668 16.3868V20.7931H12.6887V26.5743H17.7668V40.5501C18.7851 40.7099 19.8287 40.7931 20.8918 40.7931C21.955 40.7931 22.9986 40.7099 24.0168 40.5501V26.5743H28.677Z" fill="white"/>
</svg>
